<?xml version="1.0" encoding="utf-8"?>
<!-- Generator: Adobe Illustrator 26.3.1, SVG Export Plug-In . SVG Version: 6.00 Build 0)  -->
<svg version="1.1" id="Layer_1" xmlns="http://www.w3.org/2000/svg" xmlns:xlink="http://www.w3.org/1999/xlink" x="0px" y="0px"
	 viewBox="0 0 28 28" style="enable-background:new 0 0 28 28;" xml:space="preserve">
<style type="text/css">
	.st0{fill:#FFFFFF;}
</style>
<g>
	<path class="st0" d="M24.4,14.3c-0.1-3.5-1.3-6.2-3.6-8.2c-0.4-0.4-0.6-0.8-0.5-1.4c0.1-0.5,0.4-0.8,0.9-0.9c0.5-0.1,0.9,0,1.3,0.3
		c2,1.7,3.3,3.9,4,6.4c1.9,6.6-1.8,13.7-8.2,15.9c-5.9,2-12.4-0.4-15.5-5.8c-3-5.1-2.1-11.5,2-15.8C5,4.5,5.3,4.2,5.5,4
		c0.6-0.5,1.3-0.5,1.8,0.1C7.8,4.6,7.8,5.4,7.3,6C6.7,6.6,6,7.2,5.6,7.9C4,10,3.4,12.5,3.7,15.2c0.6,4.7,4.2,8.4,8.9,9.1
		c5.3,0.8,10.3-2.7,11.6-7.9C24.3,15.5,24.3,14.7,24.4,14.3z"/>
	<path class="st0" d="M15.3,7.5c0,1.7,0,3.4,0,5.2c0,0.7-0.3,1.1-0.9,1.3c-0.8,0.3-1.6-0.3-1.7-1.2c0-0.2,0-0.3,0-0.5
		c0-3.3,0-6.6,0-9.8c0-0.2,0-0.4,0-0.6c0.2-0.6,0.7-1,1.4-0.9c0.6,0.1,1.1,0.6,1.1,1.2C15.3,4,15.3,5.8,15.3,7.5
		C15.3,7.5,15.3,7.5,15.3,7.5z"/>
</g>
</svg>
