<?xml version="1.0" encoding="UTF-8"?><svg id="Layer_2" xmlns="http://www.w3.org/2000/svg" xmlns:xlink="http://www.w3.org/1999/xlink" viewBox="0 0 366.67 225.99"><defs><style>.cls-1{fill:url(#linear-gradient);}.cls-2{fill:url(#linear-gradient-3);}.cls-3{fill:url(#linear-gradient-4);}.cls-4{fill:url(#linear-gradient-2);}</style><linearGradient id="linear-gradient" x1="0" y1="113" x2="366.67" y2="113" gradientUnits="userSpaceOnUse"><stop offset="0" stop-color="#ffb782"/><stop offset="1" stop-color="#ff8e3a"/></linearGradient><linearGradient id="linear-gradient-2" x1="229.21" y1="27.62" x2="237.35" y2="27.62" xlink:href="#linear-gradient"/><linearGradient id="linear-gradient-3" x1="223.59" y1="21.47" x2="228.5" y2="21.47" xlink:href="#linear-gradient"/><linearGradient id="linear-gradient-4" x1="231.73" y1="36.5" x2="241.51" y2="36.5" xlink:href="#linear-gradient"/></defs><g id="Layer_1-2"><g><path class="cls-1" d="M359.75,76.48l-14.49,.21c-.38-.07-.78-.11-1.19-.11l-12.94,.13c3.25-6.19,6.86-14.76,5.56-19.12-.92-3.07-5.2-6.49-8.23-6.66-3.63-.86-8.79-.96-11.62-.94h0s-2.04-.11-2.04-.11l1.91-11.5c1.09-1.14,2.08-2.47,2.88-4.03,.16,.08,.32,.14,.49,.17,1.42,.31,2.89-.84,3.28-2.59,.14-.64,.11-1.27-.04-1.83,.51-.85,.79-1.6,.79-1.6,0,0,1.96,.11,2.93-1.79,1.15-2.24-.03-3.46-.03-3.46,0,0,1.86-1.4,2.11-4.05,.25-2.66-2.3-2.79-2.3-2.79,.24-6.57-4.81-6.36-4.81-6.36-1.34-2.75-4.27-2.02-4.27-2.02-2.36-5.6-7.5-2.56-7.5-2.56,0,0-3.42-1.23-8.29,.8-.94,.39-1.66,.91-2.21,1.5-2.67,2.04-3.92,4.99-2.92,7.3-1.5,2.28,.41,4.66,.41,4.66-2.44,4.11,.44,7.36,1.88,8.64-1.14,7.3,1.14,14.66,4.45,15.39,.24,.05,.51,.09,.8,.1l-1.43,3.9s-.32,.72-.74,1.79l-.09-.06-.12,.38c-1.17,.01-7.47,.09-9.54,.53-10.56,1.32-24.63,10.89-39.14,17.13,0,0-23.74-20.18-25-20.51-.09,.08-.19,.17-.29,.27-1.05-1.07-1.85-1.95-1.91-2.18-.15-.59,.65-.57-.4-5.21-.3-1.34-1.63-2.82-1.63-2.82,0,0-1.65-1.81-2.15-1.56-.51,.25-.65,.96-.47,1.4,.18,.44,.91,1.08,1.09,1.52,.18,.44-.35,1.78-.71,2.15-.36,.37-5.04-5.11-5.04-5.11,0,0-1.27-1.63-1.65-2.21-.33-.49-1.19-2.03-1.19-2.03,0,0-1.35-2.12-1.96-1.7-.36,.25,.34,2.44,1.34,4.46,1.08,2.17,2.49,4.17,2.32,4.32-.41,.36-3.04-2.59-3.04-2.59,0,0-.94-1.66-1.56-2.24-.41-1.11-1.58-2.71-2.28-2.14-.13,.1,.86,2.71,.86,2.71,0,0,.94,1.55,1.34,2.32,.71,1.35,2.28,2.97,2.83,3.85,.46,.73,.09,.64,.06,.73-.02,.07-.77-.81-1.8-2-.52-.6-1.23-1.16-1.74-1.95-.47-.73-1.25-1.64-1.73-2.18-1.36-1.52-2.03-.44-.97,1.18,.4,.62,.84,1.28,1.29,1.96,1.75,2.63,3.87,4.65,3.68,4.91-.25,.34-3.91-3.59-3.91-3.59,0,0-2.54-1.58-.98,.81,1.81,2.77,3.73,4.52,3.81,4.59,.6,.49,2.24,2.84,4.58,4.22,2.34,1.38,6.13,3.46,6.13,3.46,.32,.36,1.05,1.17,2.07,2.27-.23,.79-.38,1.51-.41,2.06-.07,1.11,22.02,28.22,28.01,29.78,2.63,.68,8.74-.18,15.39-1.66-1.96,3.31-3.85,6.56-5.61,9.62-.21,.02-.38,.04-.44,.05-.1,.3-.18,.69-.24,1.14-.07,.12-.14,.24-.21,.36-1.2-.09-1.94-.35-1.94-.35l-7.03-2.87,.21-2.49,.12-1.45-13.57-1.16-.35,4.07-1.83-.16c-1.3-.11-2.51,.44-3.29,1.37-16.29-3.86-38.85-6.26-63.78-6.26s-48.85,2.54-65.23,6.61v-.66s-13.61-.08-13.61-.08v1.45s-.03,3.49-.03,3.49c-.35-.01-.54-.02-.54-.02-.79-.05-1.54-.12-2.24-.17-.17-3.15,.05-11.69-.25-20.55,1-1.52,1.43-3.2,1.48-4.96,.63,.28,1.18,.14,1.05-1.28-.28-3.16,1.46-3.94,3.37-7.3,1.92-3.35-.65-7.14-.65-7.14-1.31-1.05-.91-3.16-.1-4.62,.81-1.46,2.02-2.84,2.04-4.52,.05-3.26-4.3-5.44-3.97-8.68,.23-2.34,2.88-3.93,3-6.27,.09-2.06-1.77-3.65-2.47-5.59-.82-2.26,0-4.72,.34-7.1,.4-2.94,.02-5.9-1.03-8.62-.03-.43-.09-.86-.22-1.28-.54-2.25-1.6-4.35-3.1-6.13-1.51-1.78-3.62-2.94-5.93-3.26-2.09-.26-4.16,.44-5.67,1.87-2.07-2.88-6.73-1.88-9.77-.83-3.12,1.08-5.45,4.67-6.38,7.84-.51,1.75-.47,3.68-1.32,5.29-.9,1.75-2.68,2.86-3.8,4.48-.17,.25-.31,.51-.44,.77-3.39,4.09,.18,10.09-2.39,14.03-1.62,2.49-5.11,3.69-5.84,6.56-.37,1.42,.05,2.92,.27,4.37,.22,1.45,.17,3.12-.89,4.15-.53,.42-1.09,.8-1.68,1.15-1.63,1.2-2.19,3.44-2,5.45,.18,2.02,.97,3.92,1.53,5.87,1.27,4.56,1.25,9.37,0,13.9l-20.27-.21c-.41,0-.8,.04-1.19,.11l-14.49-.21c-4.47-.05-8.66,6.34-6.19,14.54l18.53,54.72h0s5.11,16.41,5.11,16.41h.02c1.12,3.66,4.34,6.49,8.37,7.31l-20.15,56.05h5.3s20.07-55.8,20.07-55.8h33.73l-20.06,55.8h5.34s20.04-55.8,20.04-55.8h14.46l4.46,12.4c-2.43,4.41-4.12,7.38-4.37,7.53-2.87,.05-7.93,.94-7.93,1.48l4.22,24.44c.95,3.16,2.54,3.13,2.95,2.71,.73-.76,1.12-5.81,1.27-9.55l8.25,17.02s1.2,.17,2.7,.3c.22,.94,.89,1.67,1.74,1.78,.95,.12,1.82-.57,2.13-1.62,.98-.04,1.76-.17,2.02-.46,.58-.65-.48-1.4-1.62-2.36l.92-7.2,3.36,9.33h5.73s-7.62-20.82-7.62-20.82l1.03-8.03c3.09-6.94,7.46-16.88,11.56-26.97h.21l20.09,55.82h5.73s-20.5-56-20.5-56c5.67-.93,9.99-5.84,9.99-11.78,0-4.7-2.72-8.75-6.66-10.7,1.97-3.53,3.64-6.84,4.84-9.72,8.82,.99,18.33,1.6,28.27,1.75l3.44,47.68c-3.75-.2-7.01-.3-8.68,.26-.68,.23-1.48,.64-.41,1.76,1.7,1.79,5.57,4.34,9.73,6.75l1.62,22.39c.09,1.22,.93,2.12,1.89,2.05,.95-.08,1.68-1.08,1.67-2.28l-.2-19.41c4.17,2.19,7.89,3.87,9.24,4.09,4.37,.71,4.51-9.02,4.51-9.02,0,0-.01,0-.02,0,.33-.72,1.04-1.9,1.86-3.16,.8,.37,1.61,.73,2.42,1.1,5.84-8.68,14.67-24.05,21.53-37.18,1.16,27.08,3.75,58.81,3.75,58.81,.75,.1,1.51,.16,2.26,.24l-.27,3.17-2.04,1.22s-.03,0-.03,0c0,0-5.38,2.03-7.11,2.89-3.84,1.91-7.34,3.12-8.59,5.08-.4,.63-.41,1.18,1.05,1.46,3.81,.73,24.42,1.32,27.13,.35,4.21-1.51-.64-10.26-.64-10.26,0,0-.01,0-.02,0,0-.41,.03-.99,.09-1.64l.64-1.78c.28,0,.56,0,.85,0l1.75,12.2c.19,1.33,1.24,2.22,2.35,1.99,1.07-.22,1.81-1.42,1.67-2.71l-2.4-23.18,10.94-30.38h14.58c.11,0,.22,.02,.34,.02h10.69l-20.43,55.8h5.73s20.09-55.8,20.09-55.8h14.46l20.04,55.8h5.34s-20.06-55.8-20.06-55.8h33.73l20.07,55.8h5.3s-20.15-56.05-20.15-56.05c4.03-.82,7.25-3.65,8.37-7.31h.02s5.11-16.41,5.11-16.41h0s18.53-54.72,18.53-54.72c2.47-8.2-1.72-14.59-6.19-14.54ZM79.61,103.77s.01,.04,.02,.06c.15,.4,.4,.77,.72,1.1-.03,.06-.07,.12-.1,.17-.29-.07-.57-.14-.86-.2,.05-.43,.1-.86,.15-1.31,.02,.06,.05,.13,.07,.18Zm18.23,96.88c-1.82,.46-3.24,1.04-4.31,1.6,1.36-2.88,3.46-7.06,5.3-9.4,.2-.25,.47-.61,.81-1.04-.89,5.14-1.54,8.58-1.74,8.79-.02,.02-.03,.03-.05,.05Zm135.57-27.53c.18-2.01,.34-3.88,.48-5.66,1.45,1.03,3.14,1.75,4.97,2.05l-6.26,17.11c.29-5.7,.57-10.8,.81-13.49Zm1.48-25.76c0-.96,0-1.46,0-1.46,.46,.11,1.18,.29,2.08,.53-.72,.25-1.42,.56-2.07,.93Zm1.37-53.82l1.83,.16-.05,.55c-.79-.22-1.59-.44-2.42-.65,.2-.05,.41-.08,.63-.06ZM75.71,1.85s-.06,.08-.09,.12c0,0,0-.01-.01-.02l.11-.1Zm21.16,166.01h5.85c-1.21,2.22-2.39,4.38-3.5,6.42l-2.35-6.42Zm81.81,18.07l-2.33,.05s-.03-.02-.03-.02c0,0-1.45-.23-3.13-.48l-.49-48.24c8.14-.08,15.99-.47,23.44-1.13-6.88,16.35-13.7,34.13-17.91,44.77,.67,.81,1.39,1.52,2.12,2.18l-1.67,2.86Z"/><path class="cls-4" d="M229.32,30.41c.21,.29,.6,.37,.9,.18l6.84-4.82c.29-.21,.36-.6,.17-.9-.2-.31-.61-.4-.92-.21l-6.8,4.8c-.31,.2-.4,.61-.21,.92v.02Z"/><path class="cls-2" d="M223.98,25.93c.33,.16,.73,.01,.89-.32l3.57-7.72c.15-.34,0-.73-.33-.89-.34-.15-.73,0-.89,.33l-3.57,7.72c-.1,.21-.08,.45,.05,.65,.07,.1,.16,.18,.27,.23Z"/><path class="cls-3" d="M232.33,36.22c-.37,.04-.64,.36-.6,.73,0,.11,.05,.21,.11,.3,.13,.2,.37,.32,.62,.3l8.45-.75c.37-.04,.63-.36,.6-.73,0,0,0,0,0,0-.03-.37-.36-.64-.72-.61l-8.44,.75s0,0,0,0Z"/></g></g></svg>