<?xml version="1.0" encoding="UTF-8"?><svg id="Layer_2" xmlns="http://www.w3.org/2000/svg" xmlns:xlink="http://www.w3.org/1999/xlink" viewBox="0 0 306.9 271.94"><defs><style>.cls-1{fill:url(#linear-gradient);}.cls-2{fill:url(#linear-gradient-3);}.cls-3{fill:url(#linear-gradient-4);}.cls-4{fill:url(#linear-gradient-2);}.cls-5{fill:url(#linear-gradient-5);}</style><linearGradient id="linear-gradient" x1="0" y1="110.08" x2="126.48" y2="110.08" gradientUnits="userSpaceOnUse"><stop offset="0" stop-color="#b4c9ff"/><stop offset="1" stop-color="#2073f2"/></linearGradient><linearGradient id="linear-gradient-2" x1="130.33" y1="79.06" x2="140.62" y2="79.06" xlink:href="#linear-gradient"/><linearGradient id="linear-gradient-3" x1="123.22" y1="71.28" x2="129.43" y2="71.28" xlink:href="#linear-gradient"/><linearGradient id="linear-gradient-4" x1="133.51" y1="90.29" x2="145.88" y2="90.29" xlink:href="#linear-gradient"/><linearGradient id="linear-gradient-5" x1="84.33" y1="176.1" x2="306.9" y2="176.1" gradientUnits="userSpaceOnUse"><stop offset="0" stop-color="#2073f2"/><stop offset="1" stop-color="#b4c9ff"/></linearGradient></defs><g id="Layer_1-2"><g><path class="cls-1" d="M126.48,117.53v-31.41l-51.7-29.85-12.48,7.21c-1.55-1.95-3.56-5.09-5.64-8.49-.02-.06-6.12-16.44-15.47-17.29h0s-.03,0-.03,0c-.39-.03-.77-.05-1.17-.03,0,0,0,.02,0,.02-.19-.02-.37-.04-.55-.03l-1.09,.03h-.08v-4.75c2.47,.41,5,.75,6.32,.18,1.17-.51,3.38-2.16,3.98-8.23,1.68-2.48,2.67-5.48,2.67-8.7C51.25,7.25,44,0,35.06,0h-1.9c-8.94,0-16.18,7.25-16.18,16.19v.02c0,.13,.02,.25,.02,.37-.93,.08-1.85,.49-2.71,1.32-2.38,2.28-2.6,6.01-.71,8.84-1.29,2.56-.81,5.87,1.42,8.2,2.77,2.89,7.2,3.13,9.9,.54,.03-.03,.06-.06,.09-.1,1.03,.32,2.1,.41,3.14,.25v2.36l-.61,.02c-1.5,.1-3.26,.33-4.43,.49-8.37-2.2-14.64,14.32-15.37,16.36-.03,.09-.02,.19,.02,.27-2.36,4.65-5.03,9.91-6.84,13.86-1.09,2.37-2.48,4.54,4.62,14.08,2.32,3.16,4.4,6.7,7.98,11.54-.58,5.15-.4,10.63,.01,17.55l-6.03,85,6.34-.94c-.32,1.94-.5,3.91-.52,5.88-.08,3.92-.78,5.31-.89,8.54-.11,3.68,.53,5.06,2.02,7.12,1.5,2.07,5.41,3.92,7.05,.45s1.44-5.78,.92-9.41-.62-5.79-.93-8.62c-.28-2.51-.62-4.41-.62-4.41h-.02s0,0,0,0c0-.18,0-.38,.01-.58l5.74-.85,6.15-71.23,.93,.54,4.14,64.28,6.24,.61c0,.11-.01,.22-.03,.31,0,.03,0,.06,0,.09-.13,.02-.65,.11-.75,.58-.12,.54-.16,1.67-.42,2.74-.44,1.67-.6,3.4-.46,5.12l.73,6.29h2.59l.39-3.31c.39,.15,.78,.28,1.14,.34,1.88,.32,4.54,2.17,6.01,3.56,2.36,1.96,5.29,3.11,8.35,3.28,3.13,0,5.33-1.04,6.36-2.73,1.03-1.69-.95-1.88-4.53-4.21l-.11-.07c.05-.06,.09-.13,.12-.21-3.26-2.49-7.7-5.75-10.31-8.62-.71-.77-1.17-1.45-1.45-2.39l7.46,.73-4.35-54.19,20,11.55,51.7-29.85ZM49.32,70.97c-.05-.41-.11-.85-.16-1.34-.32-2.26-.44-4.53-.38-6.81,.03-.04,.06-.08,.09-.12,1.33,1.91,2.81,3.9,4.48,5.94l-4.04,2.33Zm-33.47-5.42s1.23-2,2.81-4.6l2.44,6.08c-.19,2.4-2.92,7.88-4.69,15.47-2.17-4.93-4.14-9.83-4.36-10.44,0,0,1.7-2.91,3.8-6.5Z"/><path class="cls-4" d="M130.47,82.58c.26,.37,.76,.47,1.14,.23l8.65-6.09c.36-.26,.46-.76,.22-1.14-.25-.39-.77-.51-1.17-.26l-8.6,6.08c-.39,.25-.51,.77-.26,1.17v.03Z"/><path class="cls-2" d="M123.71,76.92c.42,.2,.92,.01,1.12-.41l4.52-9.76c.2-.42,0-.93-.41-1.12s-.93,0-1.12,.41l-4.51,9.76c-.12,.27-.09,.57,.07,.82,.08,.13,.2,.23,.34,.29Z"/><path class="cls-3" d="M134.28,89.92c-.46,.05-.8,.46-.76,.92,.01,.14,.06,.27,.13,.39,.17,.26,.47,.4,.78,.38l10.69-.95c.46-.05,.8-.46,.76-.92,0,0,0,0,0,0-.04-.46-.45-.81-.92-.77l-10.68,.95s0,0,0,0Z"/><path class="cls-5" d="M303.26,202.99c-.81,.88-2.12,2.13-4.09,3.34-.8,.49-1.72,.99-2.75,1.44,2.94-1.36,5.44-3.41,7.16-5.82,1.94-2.71,6.9-14.51-1.05-26.34-2.66-6.57-6.13-12.54-7.4-14.64,2.74-6.06,4.41-11.22,3.96-18.78-.59-9.69-2.8-19.2-5.01-28.66-1.5-6.42-3.01-12.87-5.6-18.92-1.33-3.11-2.99-6.15-5.48-8.44-2.4-2.2-4.96-5.03-8.96-3.34-3.91-2.42-9.31-.93-12.49,2.4-1.24,1.3-2.16,2.82-2.85,4.46-.52,1.08-.92,2.22-1.15,3.32-1.09,5.27-2.22,11.75-2.15,15.8,.07,4.42,2.13,7.28,4,8.97,.15,2.29,.2,4.49,.19,6.63-.78,.31-1.66,.72-2.23,1.19l-7.68-1.38-.13,.39-7.4-1.77v-12.72l-28.66-16.55-.04-.12c-.4-1.12-1.11-2.11-2.05-2.84l-4.94-3.88c-.64-.5-1.44-.79-2.26-.77-.35,.01-.68,.08-.86,.25-.23,.22-.32,.78-.35,1.29l-12.54-7.24-51.7,29.85v31.41l2.97,1.71-2.97,1.71v2.2l-2.72-1.57-51.7,29.85v31.41l3.3,1.91-3.3,1.91v31.41l51.7,29.85,51.7-29.85v-4.02l4.09,2.36,45.12-26.05c.04,.13,.09,.25,.13,.38-2.85,3.7-4.8,6.65-4.97,7.97-.7,5.43,.42,10.16,4.04,13.22,.4,.34,1.26,.52,2.47,.57-1.97,1.73-3.75,3.49-4.63,4.85-.32,.32-.88,1.01-.57,1.67l30.31-7.69-.63-2.35h-.03s0-.02,0-.02c9.53-1.96,17.91-3.99,17.91-3.99l-.43-1.91,2.96-1.01s7.74,10.21,11.84,12.74c.33,.31,1.05,.87,1.72,.54l-8.29-29.65c.9-.02,1.76-.11,2.59-.23,3.32-.51,5.95-1.78,7.91-3.01,1.97-1.24,3.27-2.51,4.07-3.41,.38-.47,.68-.82,.84-1.09,.17-.26,.25-.39,.25-.39,0,0-.1,.12-.28,.37-.17,.26-.47,.61-.86,1.07Zm-49.1-9.77c-.45-1.45-.89-2.88-1.33-4.29l-.02-.07,.75,.63c.57,.46,1.13,.92,1.69,1.37,.51,.4,1,.79,1.51,1.18-.71,.76-1.45,1.56-2.22,2.39-.13-.4-.26-.81-.38-1.21Zm.01-38.73c.9,2.12,2.64,5.2,4.39,8.12,.31,.83,.71,1.62,1.26,2.34,.15,.2,.33,.39,.51,.56,.74,1.19,1.42,2.27,1.98,3.15-4.88-1.46-10.12-3.02-15.7-4.69-.82-.25-1.65-.49-2.49-.74-.42-.12-.84-.25-1.26-.38-.24-.06-.48-.12-.72-.18v-2.2c2.54-.7,7.18-3.15,12.03-5.98Zm31.64,55.02l-2.07,.62,1.9-.64c.06,0,.12,.02,.17,.03Zm-41.31-69.97l-.36,1.06,3.06,1.16-5.07,3.62v-.41l-2.97-1.71,2.97-1.71v-2.77c.85,.28,1.64,.54,2.37,.77Zm32.54,72.19l2.41-.81c.34,.11,.66,.17,.95,.2l-3.28,.97-.08-.36Z"/></g></g></svg>