<?xml version="1.0" encoding="UTF-8"?><svg id="Layer_2" xmlns="http://www.w3.org/2000/svg" xmlns:xlink="http://www.w3.org/1999/xlink" viewBox="0 0 224.13 250.2"><defs><style>.cls-1{fill:url(#linear-gradient);}.cls-2{fill:#edeeef;}.cls-3{fill:#fff;}.cls-4{fill:#565656;}.cls-5{fill:#7a7a7c;}.cls-6{fill:url(#linear-gradient-8);}.cls-7{fill:url(#linear-gradient-9);}.cls-8{fill:url(#linear-gradient-3);}.cls-9{fill:url(#linear-gradient-4);}.cls-10{fill:url(#linear-gradient-2);}.cls-11{fill:url(#linear-gradient-6);}.cls-12{fill:url(#linear-gradient-7);}.cls-13{fill:url(#linear-gradient-5);}.cls-14{fill:url(#linear-gradient-10);}</style><linearGradient id="linear-gradient" x1="7.04" y1="50.52" x2="95.87" y2="50.52" gradientUnits="userSpaceOnUse"><stop offset=".28" stop-color="#6700ad"/><stop offset="1" stop-color="#a75fd3"/></linearGradient><linearGradient id="linear-gradient-2" x1="106.21" y1="202.44" x2="209.52" y2="202.44" gradientUnits="userSpaceOnUse"><stop offset=".13" stop-color="#6700ad"/><stop offset=".85" stop-color="#a75fd3"/></linearGradient><linearGradient id="linear-gradient-3" x1="100.12" y1="56.59" x2="186.79" y2="56.59" gradientUnits="userSpaceOnUse"><stop offset=".28" stop-color="#6700ad"/><stop offset=".85" stop-color="#a75fd3"/></linearGradient><linearGradient id="linear-gradient-4" x1="132.36" y1="111.19" x2="140.11" y2="111.19" xlink:href="#linear-gradient-2"/><linearGradient id="linear-gradient-5" x1="120.32" y1="120.57" x2="132.65" y2="120.57" xlink:href="#linear-gradient-2"/><linearGradient id="linear-gradient-6" x1="116.35" y1="133.64" x2="129.86" y2="133.64" xlink:href="#linear-gradient-2"/><linearGradient id="linear-gradient-7" x1="168.2" y1="134.14" x2="181.87" y2="134.14" gradientUnits="userSpaceOnUse"><stop offset=".15" stop-color="#a75fd3"/><stop offset=".87" stop-color="#6700ad"/></linearGradient><linearGradient id="linear-gradient-8" x1="165.67" y1="120.98" x2="178.23" y2="120.98" xlink:href="#linear-gradient-7"/><linearGradient id="linear-gradient-9" x1="158.34" y1="111.43" x2="166.28" y2="111.43" xlink:href="#linear-gradient-7"/><linearGradient id="linear-gradient-10" x1="149.31" y1="100.72" x2="149.31" y2="114.7" xlink:href="#linear-gradient-2"/></defs><g id="Layer_1-2"><g><g id="freepik--character-1--inject-2"><path class="cls-4" d="M97.77,66.8c-.81,0-1.6,.2-2.33,.56-1.66,.71-3.44,1.08-5.24,1.08-7.68,0-15.05-4.55-15.05-13.96,0-5.61,5.75-11.31,11.41-12.25,2.85-.47,7.03,.92,9.28,2.01,.88,.43,1.85,.66,2.83,.66h1.41l.09-30.95c0-2.11-1.88-3.82-3.59-3.82H4.8c-2.92,0-4.8,1.71-4.8,3.82v31.93l3.69-.2c.86,0,1.71-.15,2.51-.45,1.6-.59,3.27-1.61,5.1-1.61,7.86,0,13.35,4.45,13.03,11.67-.28,6.37-4.99,11.34-11.97,11.78-2.29,.11-4.58-.34-6.66-1.31-.95-.42-1.98-.65-3.01-.68l-2.69,.06v31.27c0,2.59,2.31,4.69,5.15,4.69H95.01c2.84,0,5.15-2.1,5.15-4.69v-29.62h-2.38Z"/><path class="cls-1" d="M95.87,101.04s-9.23-34.03-19.92-36.61l-4.07-1.19-6.24-1.69c.46-.59,.73-1.2,.73-1.84,0-2.11-2.72-3.99-6.94-5.22,0-.2,0-.33,0-.33,0,0,5.81-.67,8.35-5.59,.84,.44,.77,.03,.3-.68,.03-.07,.06-.13,.08-.2,.42,.26,.85,.55,1.31,.89,5.27,3.84,.67-2.33-.22-3.38-.12-.15-.26-.3-.39-.45,.02-.19,.06-.37,.07-.58,.23-4.33-.02-13.27-.33-21.37-.04-.98-.17-1.93-.37-2.85,.06,0,.11,.01,.17,.02,.32,2.71,.38,7.14,.5,9.67l2.22-5.02c.14-.23,.26-.47,.37-.71,.85,.63,1.88,1.01,3.02,1.01,2.74,0,4.95-2.17,5.06-4.87,2.06-.65,3.56-2.55,3.56-4.83s-1.5-4.18-3.56-4.83c0-.09,.03-.17,.03-.26,0-2.81-2.28-5.09-5.09-5.09-.78,0-1.51,.18-2.16,.49-.69-1.89-2.48-3.25-4.61-3.25-1.26,0-2.39,.48-3.26,1.26-1.19-.97-2.34-1.72-3.5-2.2-2.98-1.24-7.98-1.78-11.12-1-3.14,.78-5.96,3.29-6.43,6.49-1.73-1.51-4.36-1.51-6.5-.69h-.06c-2.27,.78-3.62,3.08-4.38,5.38-2.76,.05-4.99,2.3-4.99,5.08,0,1.84,.98,3.43,2.44,4.32-.36,.7-.59,1.48-.59,2.33,0,2.81,2.28,5.09,5.09,5.09,.03,0,.05,0,.08,0,.13,.77,.27,1.44,.43,1.89-1.47,.29-2.9,1.33-2.93,4.33-.05,5.39,4.7,5.11,5.87,4.85l.18,14.64c-5.22,1.18-8.71,3.28-8.71,5.67,0,.4,.12,.79,.3,1.18-4.58,1.64-9.62,3.64-11.36,5.04-.02,.01-.03,.04-.05,.06-.06-.04-.1-.06-.1-.06-3.45,2.67-5.81,6.5-6.65,10.78-1.45,7.24-4.46,24.26-4.46,24.26H29.07s0,.02,0,.03c0,0,0-.02,0-.03h3.12s0,0,0,0h48.55l15.12,.08Z"/></g><g id="freepik--character-4--inject-2"><path class="cls-5" d="M198.39,237.25v-89.14c0-2.8-2.27-5.06-5.06-5.06h-32.86v-2.21c0-1.03,.25-2.05,.71-2.98,3.27-6.81,.4-14.98-6.41-18.25-6.81-3.27-14.98-.4-18.25,6.41-1.73,3.6-1.8,7.78-.19,11.43,.39,.87,.6,1.81,.61,2.76v2.85h-32.05c-2.8,0-5.06,2.27-5.06,5.06v89.12c0,2.28,1.85,4.13,4.12,4.13h90.31c2.28,0,4.12-1.84,4.12-4.11h0Z"/><path class="cls-10" d="M209.31,240.38h.02s-.05-.16-.05-.16c-.1-.44-.24-.86-.42-1.26l-7.89-23.69h.01s-.95-2.82-.95-2.82l-2.77-8.32c.08-.19,.09-.41,0-.62-.08-.2-.23-.34-.4-.43l-.08-.25-.5-6.53-1.34-8.28-2.08-6.78s-.42-.64-1.25-.04c-.82,.61,.35,4.31,.35,4.31l.44,2.82s-.28,2.25-.46,2.08c-.19-.17-1.15-3.94-1.15-3.94l-2.51-8.04c-.3-.5-.94-.68-1.46-.42-.55,.24-.83,1.1-.62,2.31,.21,1.21,.96,3.22,1.09,3.9,.13,.68,1,4.64,1,4.64l-3.76-8.95s-.84-2.94-2.05-2.37c-1.21,.57-.14,2.62,0,3.55,.14,.92,2.66,6.99,2.69,8.76s-.34,.92-.34,.92l-1.86-5.02c-.82-2.21-1.83-3.44-2.84-3.52-1.01-.08,.92,5.09,.92,5.09l2.48,7.18-.17,2.39-1.88-1.93s-.35-2.76-2.21-3.72-2.17,.38-2.17,.38l4.4,10.35c.82,1.44,4.9,3.76,6,4.37-.1,.14-.17,.3-.17,.48,0,.37,.24,.67,.57,.78,.02,.1,.03,.2,.05,.31l.65,3.74c.41,2.24,.94,5.11,1.57,8.3-8.2-7.81-16.07-15.15-16.07-15.15l-3.46-.04c-.13-.4-.26-.81-.4-1.21-1.88-5.54-.27-14.77-2.17-21.68-.12-.75-.25-1.5-.39-2.24-.59-3.03-1.27-6.02-2.28-8.86-.66-2-1.65-4.01-2.74-5.74-.05-.07-.09-.14-.14-.22-.4-.62-.81-1.22-1.23-1.74-1.3-1.62-3.1-2.77-4.91-3.81-3.24-1.85-6.62-3.51-10.27-4.22-3.65-.71-7.6-.47-10.87,1.3-1.77,.97-3.25,2.34-4.37,3.97-2.87-.27-4.55,1.62-5.55,4.23-.09,.19-.17,.39-.27,.62-.66,1.66-1.14,3.39-1.43,5.15-.43,2.61-.61,5.25-.55,7.89,.05,2.97,.36,6.22,.75,9.58s.79,6.53,1,9.42c.11,1.44,.2,2.82,.2,4.07,.02,1.14-.11,2.28-.37,3.39-.37,1.59-1.29,2.99-2.59,3.97-.96,.67-1.66,.79-1.63,.96,0,.07,.19,.12,.54,.11,.51-.03,1.02-.16,1.48-.38,.29-.14,.56-.32,.82-.49-.56,1.79-.98,3.66-1.07,5.51l-3.77,1.48c-6.14,2.51-12.22,24.56-12.22,25.62l18.3,.04h0s53.45-.04,53.45-.04c2.14-7.03,1.48-10.24,1.48-10.24l-.05-.24,11.7,12.46c2.67,2.84,4.6,5.43,8.38,6.42,2.65,.69,6.8,.33,8.17-1.41,1.45-1.85,2.31-5.19,1.68-8.07Z"/></g><g><g id="freepik--character-3--inject-2"><path class="cls-2" d="M210.68,42.88c-1.86,0-3.7,.36-5.42,1.08-.86,.37-1.78,.56-2.71,.57l-3.56-.21-.18-29.86c-.08-2.68-2.31-4.78-4.98-4.71H105.01c-2.63-.03-4.79,2.08-4.82,4.71h0v29.7h-2.12c-.98,0-1.95-.23-2.83-.66-2.24-1.09-6.43-2.48-9.27-2.01-5.66,.94-11.41,6.64-11.41,12.25,0,9.41,7.37,15.31,15.05,15.31,1.8,0,3.59-.37,5.25-1.09,.72-.36,1.52-.55,2.33-.56h3.01v29.38c.03,2.63,2.19,4.75,4.82,4.72h88.66c2.68,.07,4.91-2.04,4.98-4.72l.16-30.55,3.12,.22c1.01,0,2.01,.24,2.93,.66,2.55,1.16,5.38,1.54,8.14,1.08,5.85-.94,10.41-5.53,11.05-11.11,.89-7.7-5.44-14.19-13.37-14.19Z"/><path class="cls-8" d="M186.41,98.56c-.44-.49-1.08-.77-1.74-.75-.11,0-.22,.02-.32,.02l-.22-3.18c-.5-7.31-3.52-14.23-8.56-19.55-3.6-3.8-7.53-7.7-9.6-8.97-3.16-1.93-13.49-3.77-15.81-3.98l-2.76-2.63-.02-.26s.01,0,.02,0v-.21c2.18,.15,4.48,.23,6.96,.25,1.47,0,3.24-.17,3.89-1.48,1.23,.24,2.5-.16,3.37-1.08,.84-.91,1.52-1.96,2.01-3.1,2.61-.73,4.47-3.03,4.65-5.73,1.74-1.36,2.84-3.4,3.01-5.6,2.48-.74,3.86-3.93,2.7-6.25-.52-3.04-1.54-5.98-3.01-8.69,1.69-.35,2.34-2.62,1.66-4.2-.68-1.58-2.21-2.61-3.65-3.52,1.26,.35,2.36-1.23,2.07-2.51-.29-1.28-1.42-2.16-2.54-2.83-1.63-1-3.38-1.79-5.2-2.36-.58-2.22-3.4-4.77-5.47-5.76-8.34-4.02-14.2-5.06-24.93,2.68v-.05c-2.38-2.65-8.28-2.3-9.69-.58-2.17-1.03-4.76-.19-5.91,1.92l-6.29,1.35c-1.07,.23-2.2,.48-3.01,1.19-.82,.71-1.23,2.07-.55,2.93-2.22,.56-3.1,3.85-1.48,5.45-.87,.99-.76,2.5,.23,3.36,.03,.03,.07,.06,.1,.09-1.75,2.07-3.14,4.43-4.09,6.96-.4,1.06-.72,2.24-.34,3.31,.29,.81,1.16,1.42,1.96,1.39,0,0,0,.01,.01,.02,0,0,0-.01,0-.02,.26-.01,.51-.08,.73-.24-.64,.89-.69,2.07-.15,3.01-1.06,0-1.39,1.66-.66,2.43s1.91,.87,2.97,.85c1.06-.02,2.21-.06,3.08,.55-.02,.26-.15,.51-.35,.67-1.87,1.4-2.31,4.01-1,5.94l.35,.5c.61,.88,2.13,1.69,3.07,2.19,2.39,1.27,3.82,1.04,6.5,1.45-.74,1.72,3.58,5.59,8.59,1.86,.03,0,.07,.02,.1,.03l.05,2.65-3.27,4.61-10.45,2.78c-2.75,.73-5.21,2.28-7.06,4.43l-6.22,4.9v21.19c0,3.26,1.66,5.44,4.92,5.44h.02s0,0,0,0h2.82c.44,.26,.43,1.2,.64,1.66,.44,.81,1.44,1.14,2.28,.74,.34-.18,.6-.45,.81-.76,.15,.66,.17,1.36,.21,2.01,.06,1.06,.17,2.18,.8,3.01,.63,.83,1.93,1.26,2.75,.61,0,0,.02,.02,.02,.02,0,0,0,0,0-.01-.01,.69,.48,1.28,1.16,1.39,.68,.08,1.36-.2,1.79-.73,.41-.52,.67-1.14,.76-1.8,.01,.11,.03,.19,.05,.2,0,0,0,0,0,0,.2,.69,.86,1.17,1.6,1.1,.8-.11,1.49-.62,1.82-1.35,.32-.73,.48-1.52,.47-2.32,0-.78,.35-3.01,.5-3.81l42.85-.11,.03,.07h1.76c.14,.78,.5,3.06,.5,3.85-.01,.8,.15,1.59,.47,2.32,.34,.73,1.02,1.24,1.82,1.35,.74,.06,1.4-.41,1.6-1.1,0,0,0,0,0,0,.03,0,.04-.08,.05-.2,.09,.66,.35,1.28,.76,1.8,.43,.54,1.11,.81,1.79,.73,.68-.11,1.18-.7,1.16-1.39,0,0,0,0,0,.01,0,0,.02,0,.02-.02,.82,.65,2.12,.22,2.75-.61,.63-.84,.74-1.96,.8-3.01,.03-.65,.06-1.35,.21-2.01,.21,.31,.47,.58,.81,.76,.84,.4,1.84,.07,2.28-.74,.19-.42,.2-1.21,.52-1.56,.26,0,.53,0,.82,0v-.1s2.12,0,2.12,0c.13-.77,.16-2.22-.31-2.84Z"/></g><path class="cls-3" d="M155.26,78.85c-6.81-3.27-14.98-.4-18.25,6.41-1.73,3.6-1.8,7.78-.19,11.43,.39,.87,.6,1.81,.61,2.76v2.85l23.52-.02v-2.21c0-1.03,.25-2.05,.71-2.98,3.27-6.81,.4-14.98-6.41-18.25Z"/></g><g id="freepik--Lines--inject-2"><g id="freepik--lines--inject-2"><path class="cls-9" d="M139.59,117.2c-.47,.24-1.04,.05-1.28-.43l-5.85-10.32c-.24-.47-.05-1.04,.43-1.28,.45-.23,1-.06,1.25,.37l5.86,10.39c.23,.45,.06,1.01-.38,1.26h-.03Z"/><path class="cls-13" d="M132.16,124.49c-.29,.15-.64,.15-.92-.02l-10.44-6.16c-.45-.27-.61-.85-.34-1.31s.85-.61,1.31-.34l10.44,6.16c.45,.27,.6,.85,.33,1.3-.08,.15-.21,.28-.37,.35Z"/><path class="cls-11" d="M129.36,134.54c-.14,.07-.29,.1-.45,.11l-11.65-.11c-.53-.02-.94-.46-.92-.99,.02-.5,.43-.91,.93-.92l11.65,.09c.52,0,.94,.44,.94,.96,0,.36-.19,.69-.51,.86Z"/><path class="cls-12" d="M181.36,135.04c-.14,.07-.29,.1-.45,.11l-11.77-.1c-.53,0-.95-.44-.94-.97s.44-.95,.97-.94l11.77,.1c.52,0,.94,.44,.94,.96,0,.36-.2,.68-.51,.84Z"/><path class="cls-6" d="M167.03,124.82c-.45,.23-1.01,.06-1.26-.38-.23-.45-.06-1.01,.38-1.26l10.65-6.03c.46-.26,1.04-.1,1.3,.36,0,.01,.02,.03,.02,.04,.24,.47,.05,1.04-.43,1.28l-10.66,6.02-.02-.03Z"/><path class="cls-7" d="M159.74,117.38c-.29,.15-.64,.14-.93-.03-.45-.27-.6-.85-.33-1.3l6.01-10.2c.26-.46,.85-.62,1.31-.36s.62,.85,.36,1.31l-6.01,10.2c-.1,.16-.24,.29-.41,.38Z"/><path class="cls-14" d="M149.69,114.6c-.14,.07-.29,.11-.45,.11-.53,0-.95-.43-.95-.95,0,0,0,0,0,0l.13-12.08c0-.53,.44-.95,.96-.94,0,0,0,0,0,0,.52,0,.95,.43,.95,.95l-.13,12.09c0,.35-.2,.67-.51,.83Z"/></g></g></g></g></svg>