<?xml version="1.0" encoding="UTF-8"?><svg id="Layer_2" xmlns="http://www.w3.org/2000/svg" xmlns:xlink="http://www.w3.org/1999/xlink" viewBox="0 0 325.11 197.4"><defs><style>.cls-1{fill:url(#linear-gradient);}.cls-2{fill:url(#linear-gradient-8);}.cls-3{fill:url(#linear-gradient-9);}.cls-4{fill:url(#linear-gradient-3);}.cls-5{fill:url(#linear-gradient-4);}.cls-6{fill:url(#linear-gradient-2);}.cls-7{fill:url(#linear-gradient-6);}.cls-8{fill:url(#linear-gradient-7);}.cls-9{fill:url(#linear-gradient-5);}.cls-10{fill:url(#linear-gradient-12);}.cls-11{fill:url(#linear-gradient-10);}.cls-12{fill:url(#linear-gradient-11);}</style><linearGradient id="linear-gradient" x1="0" y1="102.75" x2="146.41" y2="102.75" gradientUnits="userSpaceOnUse"><stop offset="0" stop-color="#ffe580"/><stop offset="1" stop-color="#ffcc01"/></linearGradient><linearGradient id="linear-gradient-2" x1="182.89" y1="110.11" x2="325.11" y2="110.11" xlink:href="#linear-gradient"/><linearGradient id="linear-gradient-3" x1="107.77" y1="33.3" x2="147.47" y2="33.3" xlink:href="#linear-gradient"/><linearGradient id="linear-gradient-4" x1="145.39" y1="5.06" x2="145.39" y2="13.41" xlink:href="#linear-gradient"/><linearGradient id="linear-gradient-5" x1="136.18" y1="0" x2="136.18" y2="10.33" xlink:href="#linear-gradient"/><linearGradient id="linear-gradient-6" x1="123.93" y1="6.52" x2="128.55" y2="6.52" xlink:href="#linear-gradient"/><linearGradient id="linear-gradient-7" x1="146.58" y1="17.25" x2="156.35" y2="17.25" xlink:href="#linear-gradient"/><linearGradient id="linear-gradient-8" x1="162.78" y1="73.1" x2="202.48" y2="73.1" xlink:href="#linear-gradient"/><linearGradient id="linear-gradient-9" x1="161.42" y1="49.04" x2="168.3" y2="49.04" xlink:href="#linear-gradient"/><linearGradient id="linear-gradient-10" x1="174.07" y1="39.8" x2="174.07" y2="50.14" xlink:href="#linear-gradient"/><linearGradient id="linear-gradient-11" x1="184.01" y1="41.6" x2="184.01" y2="51.05" xlink:href="#linear-gradient"/><linearGradient id="linear-gradient-12" x1="153.9" y1="57.05" x2="163.67" y2="57.05" xlink:href="#linear-gradient"/></defs><g id="Layer_1-2"><g><path class="cls-1" d="M144.4,147.23s-14.55-43.81-20.2-50.11c-5.65-6.3-40.53-17.35-40.53-17.35-.06-.71-.12-1.4-.18-2.05,1.91-.36,3.5-1.59,4.38-3.26,.46,.11,.93,.18,1.42,.18,3.46,0,6.26-2.8,6.26-6.26,0-.55-.09-1.08-.23-1.59,2.11-1,3.58-3.14,3.58-5.64,0-1.76-.74-3.35-1.91-4.49,.09-.42,.14-.85,.14-1.29,0-3.07-2.21-5.61-5.12-6.15-.81-5.32-1.9-11.65-2.97-17.61-.15-.83-.36-1.64-.6-2.43,1.51-.16,2.97-.55,4.29-1.29,1.21-.68,2.36-1.81,2.36-3.19,0-.78-.58-1.49-1.27-1.8,.37-.11,.73-.27,1.06-.49,.23-.16,.44-.34,.62-.54,1.48-.8,2.49-2.35,2.49-4.14,0-2.61-2.12-4.73-4.73-4.73-.28,0-.56,.04-.83,.08-.03-.38-.12-.76-.3-1.1-.92-1.48-2.59-2.32-4.32-2.18-.66,.06-1.31,.19-1.95,.36-.85-1.25-2.29-2.07-3.91-2.07-1.3,0-2.48,.53-3.33,1.37-.86-.85-2.03-1.37-3.33-1.37-1.56,0-2.94,.77-3.8,1.94-.86-1.17-2.24-1.94-3.8-1.94-1.81,0-3.37,1.03-4.16,2.52-2.01-.17-3.97-.07-5.62,.64-3.16,1.34-7.12,5.15-6.82,8.05-1.74-.21-3.43,1.08-4.83,2.31-1.67,1.47-2.53,3.65-2.3,5.86,.57,5.99,2.24,11.21,3.62,16.62-1.66,.69-3.05,2.28-2.6,5.82,.57,4.42,3.3,5.45,5.51,5.48l4.49,26.03s-29,12.62-32.62,18.32c-3.62,5.7-15.55,46.3-15.55,46.3l4.66,1.37L0,197.29l24.31,.07,10.96-42.99,2.05,.6c0,.58,0,1.15,0,1.7l-.5,40.59H111.76l-.36-43.5,3-.59,7.7,44.24,24.31-.07-7.77-48.96,5.76-1.14Z"/><path class="cls-6" d="M324.56,173.7c-2.74-5.89-14.97-32.16-23.17-49.25,5.68-6.84,7.43-16.65,5.07-25.28-2.6-9.48-9.72-17.39-18.36-22.03-3.94-2.11-8.35-3.74-11.13-7.19-2.64-3.24-3.44-7.61-3.62-11.78-.12-2.94,.01-5.91-.14-8.85,.36-4.77-.09-9.58-1.35-14.24-.99-3.59-2.56-7.2-5.41-9.59-4.34-3.47-10.46-3.57-14.91-.26-.03,0-.06,0-.09-.02-1.05-.47-14.55-6.15-21.62,6.72-3.57,3.34-6.68,11.84-7.65,22.03-.79,8.29,0,15.74,1.88,20.37,.91,2.25,.42,4.88-1.37,6.53-.01,.01-.02,.02-.04,.03-2.27,2.01-5.22,3.18-7.31,5.39-2.63,2.99-3.49,7.15-2.27,10.94,.41,1.2,.99,2.32,1.68,3.36-7.36,13.51-24.97,48.12-29.29,54.67-.25,.37-1.17,3.21-2.03,5.99-1.08,3.49-.51,7.27,1.54,10.3l15.37,25.87h18.41s75.07-.14,75.07-.14l-16.31-36.11c.05-.29,.12-.58,.17-.87,.98-3.97,1.74-7.34,1.97-8.59,.03-.11,.06-.22,.1-.34,3.24,5.42,5.79,9.58,5.87,9.54,.01,0,0-.05-.03-.12l12.35,21.19v.25c.08,.79,.53,1.49,1.22,1.89l.17,13.17h25.81v-21.04c0-.87-.19-1.73-.56-2.52Zm-114.58-6.57l5.67-9.45c.45,3.93,.75,6.47,.75,6.47v15.73l-6.42-12.76Z"/><path class="cls-4" d="M115.68,19.01c-5.95,5.28-8.01,13.69-5.17,21.12l-2.74,4.74,6.3,1.12c7.01,7.89,19.08,8.62,26.98,1.61,7.89-7.01,8.62-19.08,1.61-26.98-7.01-7.89-19.08-8.62-26.98-1.61Z"/><path class="cls-5" d="M142.21,13.26c.3,.23,.72,.19,.97-.09l5.5-6.96c.23-.3,.19-.72-.1-.97-.29-.26-.74-.23-1,.07l-5.46,6.94c-.26,.29-.23,.74,.07,1v.02Z"/><path class="cls-9" d="M135.43,10.33c.39,.06,.75-.21,.8-.6l1.3-8.92c.06-.39-.21-.75-.6-.8-.39-.06-.75,.21-.8,.6l-1.3,8.92c-.03,.24,.06,.48,.25,.64,.1,.08,.22,.14,.35,.15Z"/><path class="cls-7" d="M127.18,10.8c.05,.11,.11,.2,.2,.28,.21,.17,.49,.21,.74,.11,.36-.15,.54-.55,.4-.92l-3.22-8.04c-.15-.34-.54-.51-.89-.38-.37,.13-.56,.54-.42,.91l3.2,8.05Z"/><path class="cls-8" d="M156.3,15.34s0,0,0,0c-.14-.36-.56-.54-.92-.4l-8.35,3.31s0,0,0,0c-.36,.15-.54,.56-.39,.92,.04,.11,.11,.2,.2,.28,.2,.17,.47,.21,.72,.12l8.36-3.32c.36-.15,.54-.56,.39-.92Z"/><path class="cls-2" d="M196.19,85.79l6.3-1.12-2.74-4.74c2.84-7.43,.78-15.84-5.17-21.12-7.89-7.01-19.97-6.28-26.98,1.61-7.01,7.89-6.28,19.97,1.61,26.98,7.89,7.01,19.97,6.28,26.98-1.61Z"/><path class="cls-3" d="M167.07,52.97c.25,.28,.68,.32,.97,.09v-.02c.31-.26,.34-.71,.08-1l-5.46-6.94c-.26-.29-.7-.32-1-.07-.28,.25-.32,.67-.1,.97l5.5,6.96Z"/><path class="cls-11" d="M174.82,50.13c.13-.01,.25-.07,.35-.15,.19-.16,.28-.4,.25-.64l-1.3-8.92c-.06-.39-.42-.66-.8-.6-.39,.06-.66,.42-.6,.8l1.3,8.92c.06,.39,.42,.65,.8,.6Z"/><path class="cls-12" d="M182.14,50.99c.25,.11,.53,.07,.74-.11,.09-.08,.15-.17,.2-.28l3.2-8.05c.13-.37-.05-.77-.42-.91-.35-.13-.74,.04-.89,.38l-3.22,8.04c-.14,.36,.03,.77,.4,.92Z"/><path class="cls-10" d="M163.42,59.26c.09-.07,.16-.17,.2-.28,.15-.36-.03-.78-.39-.92,0,0,0,0,0,0l-8.35-3.31c-.36-.14-.78,.03-.92,.4,0,0,0,0,0,0-.15,.36,.03,.77,.39,.92l8.36,3.32c.24,.1,.52,.05,.72-.12Z"/></g></g></svg>