<?xml version="1.0" encoding="UTF-8"?><svg id="Layer_2" xmlns="http://www.w3.org/2000/svg" xmlns:xlink="http://www.w3.org/1999/xlink" viewBox="0 0 212.22 353.37"><defs><style>.cls-1{fill:url(#linear-gradient);}.cls-2{fill:#a9eb57;}.cls-3{fill:url(#linear-gradient-8);}.cls-4{fill:url(#linear-gradient-9);}.cls-5{fill:url(#linear-gradient-3);}.cls-6{fill:url(#linear-gradient-4);}.cls-7{fill:url(#linear-gradient-2);}.cls-8{fill:url(#linear-gradient-6);}.cls-9{fill:url(#linear-gradient-7);}.cls-10{fill:url(#linear-gradient-5);}</style><linearGradient id="linear-gradient" x1="73.81" y1="55.71" x2="103.9" y2="55.71" gradientUnits="userSpaceOnUse"><stop offset="0" stop-color="#a9eb57"/><stop offset="1" stop-color="#7fb936"/></linearGradient><linearGradient id="linear-gradient-2" x1="99.72" y1="37.47" x2="104.93" y2="37.47" gradientUnits="userSpaceOnUse"><stop offset="0" stop-color="#7fb936"/><stop offset="1" stop-color="#a9eb57"/></linearGradient><linearGradient id="linear-gradient-3" x1="94.31" y1="34.39" x2="96.37" y2="34.39" xlink:href="#linear-gradient-2"/><linearGradient id="linear-gradient-4" x1="86.05" y1="35.42" x2="89.56" y2="35.42" xlink:href="#linear-gradient"/><linearGradient id="linear-gradient-5" x1="103.22" y1="43.55" x2="110.63" y2="43.55" xlink:href="#linear-gradient-2"/><linearGradient id="linear-gradient-6" x1="0" y1="182.6" x2="96.77" y2="182.6" xlink:href="#linear-gradient"/><linearGradient id="linear-gradient-7" x1="19.61" y1="297.36" x2="19.72" y2="297.36" xlink:href="#linear-gradient"/><linearGradient id="linear-gradient-8" x1="121.42" y1="201.48" x2="212.22" y2="201.48" xlink:href="#linear-gradient"/><linearGradient id="linear-gradient-9" x1="117.09" y1="16.05" x2="153.05" y2="16.05" xlink:href="#linear-gradient"/></defs><g id="Layer_1-2"><g><path class="cls-1" d="M79.8,44.88c-4.51,4-6.07,10.38-3.91,16.01l-2.08,3.59,4.77,.85c5.31,5.98,14.46,6.53,20.45,1.22,5.98-5.31,6.53-14.46,1.22-20.45s-14.46-6.53-20.45-1.22Z"/><path class="cls-7" d="M99.91,40.52c.22,.18,.55,.15,.74-.07l4.17-5.28c.17-.22,.14-.55-.07-.73-.22-.2-.56-.17-.76,.05l-4.14,5.26c-.2,.22-.17,.56,.05,.76h0Z"/><path class="cls-5" d="M94.77,38.3c.29,.04,.57-.16,.61-.45l.99-6.76c.04-.29-.16-.57-.46-.61s-.57,.16-.61,.46l-.98,6.76c-.03,.18,.05,.37,.19,.49,.07,.06,.17,.1,.26,.12Z"/><path class="cls-6" d="M88.52,38.66c.03,.08,.09,.15,.15,.21,.16,.13,.37,.16,.56,.08,.27-.11,.41-.42,.3-.69l-2.44-6.1c-.11-.26-.41-.39-.68-.29-.28,.1-.42,.41-.32,.69l2.43,6.1Z"/><path class="cls-10" d="M110.59,42.09c-.11-.28-.42-.41-.7-.3l-6.33,2.51s0,0,0,0c-.27,.11-.41,.43-.29,.7,.03,.08,.08,.15,.15,.21,.15,.13,.36,.16,.54,.09l6.34-2.51c.27-.11,.41-.42,.3-.7,0,0,0,0,0,0Z"/><path class="cls-8" d="M90.39,299.84c-1.35-.58-5.56-2.88-7.19-3.84-1.8-1.03-3.49-2.24-5.04-3.6-.65-.57-1.28-1.18-1.87-1.81-.47-.59-2.39-2.09-2.61-2.81-.11-2.41-.18-5.04-.21-7.8,.21-.11,.43-.21,.63-.33,0,0,.48-35.65,.56-46.9,.09-11.58-.24-40.7-.86-61.02,2.45,.25,4.91,.39,5.54,.14,3.1-1.26,6.13-2.67,9.08-4.24,.4-.19,.74-.5,.98-.87,.41-.72,.2-1.67,.47-2.43,.27-.77,.92-1.16,1.2-1.81,.24-.82,.15-1.7-.23-2.46-.12-.23-.18-.49-.19-.75,.04-.27,.13-.53,.25-.77,.7-1.83-.89-3.46-2.54-3.98-.28-3.55-4.6-2.24-4.6-2.24l-9.66,5.09c.04-7.59,.21-45.44,.21-57.06,0-.61-.03-1.22-.09-1.85,.04-1.15,.08-2.3,.1-3.45,.02-7.09-.39-11.06-3.67-15.8-1.41-2.03-3.2-3.48-5.38-4.38,.52-.81,.94-1.73,1.22-2.75,1.1-3.94,1.17-9.99,.53-16.93,.27-.39,.51-.79,.65-1.22,.17-.94,.21-1.9,.13-2.86,0-1.05,.71-1.82,.77-2.85,.12-.93-.11-1.87-.64-2.64-.21-.34-.44-.67-.68-.98,.89,.17,1.77-.14,1.91-1.26-.28,.26-.71,.24-.97-.04-.09-.09-.15-.21-.17-.34-.12-.68,.58-1.38,.72-2.01,.23-1.31-.42-2.61-1.61-3.2-.51-.31-1.15-.51-1.72-.79-.51-.23-.94-.61-1.21-1.1-.46-.86-.64-1.79-1.31-2.54-.92-1.15-2.3-1.82-3.77-1.84-1.35,0-2.63,.82-3.97,1.03-1.45,.23-2.06-.44-3.17-1.13-1.4-.87-3.72-.85-5.28-.38-.71,.2-1.37,.55-1.94,1.02-.51,.48-.77,1.19-1.44,1.54-1.15,.63-2.93-.13-4.17-.23-2.18-.18-3.93,.49-4.38,2.31-.19,.77-.21,1.39-.39,2.1-.18,.6-.6,1.09-1.15,1.38-1.02,.48-1.8,1.35-2.16,2.42-.16,.49-.21,1-.18,1.5-.6,.1-1.12,.35-1.94,.92-.8,.57-1.38,1.4-1.64,2.35-.37,1.31-.27,2.7,.29,3.94,.45,1.17-.17,2.09-.55,3.2-.51,1.38-.18,2.94,.84,4,.64,.64,1.45,1.22,2.06,1.92-.36,.36-.68,.8-.95,1.36-1.64,3.47,1.11,7.89,3.36,8.77,1.04,.41,1.87,.43,2.52,.3,.19,.31,.39,.63,.56,.96,.23,.38,.59,.65,.97,.89l-.68,8.38c-7.97,5.14-16.72,14.04-16.72,14.04,0,0-.4,.66-.95,1.87-.26,.31-.5,.61-.71,.9-3.13,4.11-2.99,9.63-2.65,12.56,.04,.32,.14,.93,.28,1.72,.11,9.25,3.61,21.14,3.32,28.23-.4,8.73-1.25,17.43-2.55,26.08,.14,.17,.3,.33,.44,.5-.56,3.4-1.21,8.64-1.53,15.89-.64,14.28-2.09,52.98-2.09,52.98-4.61,13.83-6.06,29.95-6.79,55.17,.25,.34,.52,.65,.8,.94-.03,.3-.05,.59-.08,.89l-.15,1.21c-.93,.68-1.44,5.19-2.35,10.63-1.01,6.15-2.19,7.95-3.07,12.99-.07,.42-.14,.81-.2,1.18-.74,3.6-.96,6.06-.33,9.6,.66,3.74,4.3,5.9,7.17,6.74s5.77,.21,7.41-2.24,2.43-5.26,2.87-9.53h-.04c.17-1.69,.2-3.51,.2-5.59-.04-4.6,.18-9.19,.66-13.76,.43-4.32,2-5.13,.98-5.65-.08,.29-.18,.58-.31,.85,.44-1.33,.83-2.67,1.17-4.03,.02-.08,.04-.15,.06-.23,.94-.22,1.51-.42,1.51-.42,0,0,9.33-33.27,11.67-40.9,1.75-5.72,5.19-19.43,8.14-30.85,0,0,0,0,0,0,1.44-5.03,2.84-10.08,4.21-15.13l5.19,27.38s-.09,6.24,.5,14.23c.59,7.99,2.88,22.95,4.83,31.39,.56,.31,1.13,.58,1.71,.82,.2,1.36,.41,2.85,.62,4.5,0,0,0,0,0,0-.41-.38-.23-.94-.27-1.51-.5,.03-.92,.39-1.02,.88-.16,.99-.28,3.84-.65,5.5-.42,3.04-.48,6.12-.21,9.17h-.03s-.02,3.57,.85,4.35c.86,.78,4.85,1.71,7.47,2.21,2.81,.54,5.15,2.63,7.69,4.66,2.54,2.03,4.27,3.2,10.52,3.84,6.25,.64,10.86-1.78,12.4-3.2,1.03-.94,1-2.79,.81-3.61,.89-2.4,.2-4.72-6.06-7.45Z"/><path class="cls-9" d="M19.61,297.4c.19,.09,.09-.25,0,0h0Z"/><path class="cls-3" d="M209.69,164.29c3.37-7.13,3.3-7.69,.22-16.14-.86-2.35-1.64-4.4-2.41-6.3,.07-.14,.15-.28,.21-.43,0,0-7.16-17.25-10.58-24.85-2-4.47-5.17-8.28-7.49-9.17-.31-.22-10.55-7.62-18.54-11.83l-.05-.58h2.49c-.61-1.36-1.09-2.78-1.43-4.23,.81,1.72,2.42,2.94,4.3,3.24,0,0-.99-.83-1.71-4.12-.17-.8-.06-1.93,.2-3.3,2.08-1.15,4.06-4.65,2.65-7.84-.14-.32-.31-.59-.48-.85,.61-2.51,1.12-5.09,1.21-7.45,.27-7.06-1.44-10.45-4.4-10.9-3.84-12.73-21.63-11.64-30.74-5.73-6.89,4.47-7.54,12.39-4.13,16.32-.8-2.81-.31-5.83,1.34-8.24,0,0-1.36,5.94,.28,9.5l.07,.21c-.79,7.01-.69,13.55-.12,16.65,.39,2.4,1.76,4.48,3.7,5.8-7.08,2.54-10.91,7.04-12.34,14.09-1.65,8.2-3.9,31.68-3.9,31.68,.8-.04,1.59-.05,2.39-.04,1.08,11.61,3.31,24.76,4.46,31.14,0,1.46-.01,2.83-.02,4.08,.02,.05,.05,.09,.08,.13,.2,12,1.79,32.65,2.34,48.52,.31,9.13,1.95,22.1,2.31,26.13,.71,8.8,2.38,26.32,3.11,33.95-.02-.01-.05-.03-.06-.04l.76,11.61c.1,.12,.23,.21,.34,.32,0,4.46-.09,6.58-1.62,9.22-.77,.04-1.52,.39-2.03,.99-2.51,2.96-6.25,5.02-9.59,6.74-2.49,1.27-5.09,2.44-7.18,4.29-1.18,1.03-1.98,2.89-1.78,4.53-.22,.48-.35,2.74,.85,3.75,1.54,1.3,6.15,3.4,12.11,2.54,5.96-.86,9.18-2.76,11.53-4.79,2.34-2.03,5.68-4.9,8.38-5.54,2.51-.59,6.59-2.07,7.38-2.85,.59-.58,.65-2.63,.64-3.64,.15-2.03-.26-5.81-.79-7.75-.42-1.55-.45-2.77-.65-3.71-.15-.51-.51-.93-.98-1.16l.1-1.07c.35-.16,.67-.33,.94-.51l.76-12.21s-.08,.05-.12,.07c1.19-9.38,3.4-20.65,3.69-30.48,.03,.16,.05,.32,.08,.48,.05,.29,.29,.36,.51,.3,1.84,9.86,6.51,33.33,8.52,43.38-.06-.03-.13-.06-.18-.09l.71,10.28c.56,.53,1.2,.95,1.91,1.3l.32,1.94s0,.03,0,.04c0-.02,0-.03,0-.03-1.03,.42-.15,4.27,.28,8.88,.41,4.45,.93,8.41,.58,14.28-.13,2.21-.21,4.24-.08,6.13h0c.18,4.23,.81,7.03,2.27,9.53s4.3,3.32,7.18,2.64,6.59-2.55,7.46-6.15c.85-3.49,1.36-5.98,.81-9.71-.03-.5-.08-1.01-.14-1.57-.58-5-1.42-7.42-2.06-13.51-.62-5.68-.21-11.27-1.38-11.38l.06-2.72c.06-.04,.13-.09,.18-.13l.71-11.03s-.04,.03-.06,.04c.4-7.21,1.04-20.05,1.13-28.71,.15-7.97-.87-15.91-3.02-23.59,0,0,.9-23.01,.88-38.43,0-4.9-.02-8.74-.11-12.09,.52-.68,1.02-1.3,1.49-1.82,3.36-3.74,14.39-24.09,16.26-28.06Zm-64.7-69.8c-.09,.1-.18,.2-.28,.31l-.11-.53c.13,.08,.26,.15,.39,.22Zm44.87,75.23c-.49-5.03-.77-9.39-.96-13.73-.05-1.16,0-2.46,.12-3.84,.55,1,.87,1.56,.87,1.56,0,0,.24-.03,.71-.12l2.64,5.36s-1.43,5.35-3.38,10.77Z"/><path class="cls-4" d="M128.48,32.1c1.69,0,3.25-.55,4.5-1.47,1.68,.89,3.64,1.3,5.68,1.08,4.34-.47,7.72-3.67,8.62-7.71,2.3-1.06,4.19-2.99,5.14-5.55,1.8-4.84-.43-10.19-4.99-12.39-.31-1.4-1.37-2.81-2.97-3.73-1.71-.99-3.61-1.16-5.01-.59-1.46-1-3.2-1.63-5.09-1.72-3.42-.17-6.53,1.41-8.44,3.96-1.5-.16-3.15,.32-4.51,1.46-2.08,1.74-2.76,4.44-1.82,6.51-.46,.42-.88,.9-1.24,1.45-2.35,3.6-1.34,8.42,2.25,10.78,.15,.1,.3,.18,.45,.26-.01,.16-.03,.33-.03,.5,0,3.96,3.34,7.17,7.45,7.17Z"/><circle class="cls-2" cx="145.47" cy="35.4" r="1.96"/><circle class="cls-2" cx="149.91" cy="39.84" r="1.96"/><circle class="cls-2" cx="155" cy="43.76" r="1.96"/></g></g></svg>